Coordinates
version=1
nRows=14
nColumns=36
inDegrees=yes

Units are S.I. units (second, meters, Newtons, ...)
If the header above contains a line with 'inDegrees', this indicates whether rotational values are in degrees (yes) or radians (no).

endheader
time	pelvis_tilt	pelvis_list	pelvis_rotation	pelvis_tx	pelvis_ty	pelvis_tz	hip_flexion_r	hip_adduction_r	hip_rotation_r	knee_angle_r	knee_angle_r_beta	ankle_angle_r	subtalar_angle_r	mtp_angle_r	hip_flexion_l	hip_adduction_l	hip_rotation_l	knee_angle_l	knee_angle_l_beta	ankle_angle_l	subtalar_angle_l	mtp_angle_l	lumbar_extension	lumbar_bending	lumbar_rotation	arm_flex_r	arm_add_r	arm_rot_r	elbow_flex_r	pro_sup_r	arm_flex_l	arm_add_l	arm_rot_l	elbow_flex_l	pro_sup_l
      0.00000000	      9.08675681	     -6.08959930	     -2.49914509	      0.51795078	      0.91736045	     -0.08413601	     26.15880085	      0.88330964	     -1.94457253	      8.33304587	      0.14543909	     -5.20423845	    -12.52270330	     -6.34769906	     -2.63505788	      3.90714189	     -2.25000533	     21.64319324	      0.37774498	     13.69983853	     -8.97593766	     -6.34769906	    -20.84537151	     -5.34940713	     -2.20653666	     36.51160170	     12.42382907	     58.23282454	    125.30332093	    109.35097405	     32.12556560	      6.26166878	     66.46303888	    126.21425039	    110.00349568
      0.01666670	      6.39699273	     -6.23351286	     -2.70879818	      0.52426926	      0.90917714	     -0.08297825	     26.87564208	      0.27232793	     -0.22559054	      2.69538413	      0.04704333	     -5.13083811	     -8.99969542	     -6.40325198	     -0.45234558	      3.76775029	     -0.19852668	     20.63176220	      0.36009218	     12.34627270	     -9.56387565	     -6.40325198	    -16.56454175	     -4.57470470	     -1.77389686	     35.88988073	     12.86467179	     59.90783822	    125.43281413	    107.29857950	     31.04271699	      6.43404537	     70.11754434	    128.93514573	    107.67818778
      0.03333330	      6.01692991	     -6.19409940	     -3.68199379	      0.52174917	      0.90869862	     -0.08421415	     27.00713785	      0.41589416	      0.34269973	      2.15313680	      0.03757933	     -4.91268099	     -7.13610735	     -6.69496038	      0.52977038	      3.71254885	     -1.94161985	     21.54912898	      0.37610325	     11.00525845	    -11.67022145	     -6.69496038	    -16.01682732	     -4.82319455	     -0.53698368	     35.05544701	     12.40895775	     60.35321272	    125.68331275	    107.69515624	     31.09711854	      6.68827384	     72.06002489	    129.89972300	    105.52610610
      0.05000000	      5.91467476	     -6.01764019	     -3.92986766	      0.52138793	      0.90785592	     -0.07917564	     27.08803717	      0.56415773	     -0.24395711	      2.39042567	      0.04172080	     -4.31629841	     -5.32790546	     -6.81216278	      0.23755418	      3.66953197	     -2.16299800	     20.66757689	      0.36071727	      9.66747363	    -11.76719888	     -6.81216278	    -15.93561459	     -5.14285657	     -0.10012842	     34.48774396	     12.66067199	     60.91201314	    125.19473068	    107.36039414	     31.49033106	      6.46451311	     72.78747600	    130.91960571	    104.01505604
      0.06666670	      6.15733725	     -6.41307711	     -4.06994558	      0.52148620	      0.90781705	     -0.07919735	     27.00933926	      1.14542135	     -0.19211579	      3.09434862	      0.05400657	     -3.60654011	     -5.09422605	     -6.92081185	     -0.14679995	      3.14182303	     -1.55514224	     20.21328268	      0.35278834	      9.88845870	    -11.66610769	     -6.92081185	    -16.28180575	     -4.54779300	      0.14505510	     34.22857012	     13.03333463	     61.52175819	    124.65398015	    106.25150958	     31.73122976	      6.43297235	     73.86048642	    131.66877450	    101.40598524
      0.08333330	      6.29850787	     -6.54001053	     -4.00131016	      0.52131835	      0.90828940	     -0.07943869	     27.03294589	      1.39989692	      0.00386394	      3.82230634	      0.06671183	     -3.08954657	     -5.36220251	     -6.97351060	     -0.23334806	      2.84486132	     -1.25588838	     20.20202009	      0.35259177	      9.67865360	    -11.42634692	     -6.97351060	    -16.48115225	     -4.27494428	      0.21768579	     33.93201129	     13.32620289	     61.81326646	    124.27205604	    105.20206835	     31.96227216	      6.43019093	     74.65193736	    132.05554658	    100.13647617
      0.10000000	      6.48269439	     -6.79271540	     -3.77489269	      0.52496043	      0.90559086	     -0.08160094	     27.01384200	      1.43601514	      0.01117460	      4.66823666	      0.08147610	     -2.32142034	     -5.74012207	     -6.98019926	     -0.25323289	      2.44691187	     -1.87529855	     20.54872181	      0.35864285	      9.20238094	    -11.60215910	     -6.98019926	    -16.47589420	     -3.80790936	      0.16366370	     33.71222291	     13.46675381	     61.91465571	    124.04655235	    104.81655483	     31.90278186	      6.71512332	     74.86766047	    131.85073763	     99.83249417
      0.11666670	      6.78719419	     -7.02497964	     -3.79313087	      0.52442246	      0.90687394	     -0.08189342	     26.76308953	      1.58654604	      0.28972762	      4.85438503	      0.08472500	     -2.15333951	     -6.29751838	     -7.04661860	     -0.62723874	      2.30168300	     -1.86455766	     20.53764320	      0.35844949	      7.79500125	    -13.13528141	     -7.04661860	    -16.81573990	     -3.32903418	      0.19541721	     33.75885995	     13.69655053	     62.35905929	    123.82508013	    103.56685173	     32.02066809	      6.85803864	     75.22304966	    131.92436270	     97.84797156
      0.13333330	      7.11730006	     -7.15335168	     -3.51297373	      0.52387206	      0.90812751	     -0.08191230	     26.40270842	      1.53039306	      0.31873402	      5.11344769	      0.08924650	     -1.85177339	     -6.36307409	     -7.09364089	     -0.76703262	      2.07892991	     -2.78364897	     20.90951447	      0.36493987	      6.53906888	    -14.36878894	     -7.09364089	    -17.18862932	     -3.10031916	      0.12120213	     33.92509868	     13.76875767	     62.55772376	    123.77870135	    101.98344291	     32.36053583	      7.02914855	     75.50896916	    131.75682740	     96.05608400
      0.15000000	      7.26422486	     -7.02946274	     -3.40367644	      0.52045129	      0.91018128	     -0.08452918	     26.32238300	      1.21864617	      0.26655898	      5.01987633	      0.08761337	     -1.83590083	     -6.05450698	     -7.21496920	     -0.67532016	      2.35903728	     -3.10199507	     20.98907517	      0.36632847	      4.90568887	    -15.91793789	     -7.21496920	    -17.42693304	     -3.11603432	      0.05786593	     33.95288169	     13.63352327	     62.40776849	    123.78657634	    102.04778895	     32.51005237	      7.10618373	     76.30940942	    131.88561132	     93.66479827
      0.16666670	      7.64397148	     -6.97679063	     -3.42465216	      0.52079075	      0.91249519	     -0.08441116	     25.88385600	      1.14851901	      0.12924876	      4.73373904	      0.08261933	     -1.89966401	     -5.48087820	     -7.27168066	     -0.87837195	      2.44844582	     -3.67369885	     21.09841884	      0.36823688	      3.55671319	    -16.42158593	     -7.27168066	    -17.94104984	     -3.11083724	     -0.19126836	     34.08998462	     13.63369641	     62.37312730	    123.68064207	    101.62656477	     32.73713559	      7.11697897	     76.35115899	    131.65417522	     92.27045527
      0.18333330	      7.85968188	     -6.96353355	     -3.36644483	      0.52077167	      0.91229806	     -0.08434507	     25.52924176	      1.06719020	      0.07405859	      4.55072765	      0.07942518	     -2.08671561	     -5.18994806	     -7.31851671	     -1.05684738	      2.44256309	     -3.56517252	     21.20877242	      0.37016291	      3.58607887	    -15.88912881	     -7.31851671	    -18.27212952	     -3.04538624	     -0.22640408	     34.25217697	     13.53656634	     62.28663813	    123.68699115	     99.96460653	     33.00461424	      7.17374063	     76.48016912	    131.39855629	     89.70271964
      0.20000000	      7.99271287	     -6.86715169	     -3.61222647	      0.52041120	      0.91041477	     -0.08374987	     25.41789559	      1.01563585	     -0.01735787	      4.35011083	      0.07592376	     -2.27527707	     -4.83177962	     -7.38689042	     -1.22528659	      2.53735154	     -3.52836082	     21.17239621	      0.36952802	      4.27770359	    -14.49373011	     -7.38689042	    -18.57395794	     -3.11989081	     -0.12091348	     34.43982536	     13.54161961	     62.19140870	    123.68337566	    101.60878634	     33.17506801	      7.12040159	     76.37936242	    131.20338965	     89.11966800
      0.21666670	      8.15159824	     -6.80649074	     -3.69911357	      0.51995708	      0.90896555	     -0.08409544	     25.33323810	      0.96218168	     -0.24400006	      4.32455110	      0.07547766	     -2.27428546	     -4.47438081	     -7.41295023	     -1.35352786	      2.60182508	     -3.48099199	     21.27232387	      0.37127209	      4.89135507	    -13.92960472	     -7.41295023	    -18.82689133	     -3.13662582	     -0.14081519	     34.81745230	     13.55651767	     62.37353243	    123.66618277	     97.33503685	     33.35775178	      7.14593143	     76.50964046	    131.06527131	     85.72614112
